<?xml version="1.0" encoding="UTF-8" standalone="no"?>
<svg width="1000" height="800" xmlns="http://www.w3.org/2000/svg">
    <!-- 背景 -->
    <rect width="1000" height="800" fill="#f5f5f5"/>
    
    <!-- Kubernetes 集群边界 -->
    <rect x="50" y="50" width="900" height="700" fill="#fafdff" stroke="#2196F3" stroke-width="3" stroke-dasharray="8,6" rx="24"/>
    <text x="500" y="40" text-anchor="middle" fill="#2196F3" font-size="20" font-weight="bold">Kubernetes 集群</text>
    
    <!-- Ingress Gateway -->
    <rect x="400" y="80" width="200" height="60" rx="18" fill="#E3F2FD" stroke="#2196F3" stroke-width="2" filter="url(#shadow)"/>
    <text x="500" y="115" text-anchor="middle" fill="#1565C0" font-size="16" font-weight="bold">K8s Ingress Gateway</text>
    
    <!-- 许可证管理系统 -->
    <rect x="100" y="200" width="250" height="180" rx="18" fill="#E8F5E9" stroke="#4CAF50" stroke-width="2" filter="url(#shadow)"/>
    <text x="225" y="230" text-anchor="middle" fill="#2E7D32" font-size="16" font-weight="bold">许可证管理系统</text>
    <text x="225" y="255" text-anchor="middle" fill="#2E7D32" font-size="13">- 许可证生成器</text>
    <text x="225" y="275" text-anchor="middle" fill="#2E7D32" font-size="13">- 许可证验证器</text>
    <text x="225" y="295" text-anchor="middle" fill="#2E7D32" font-size="13">- 许可证存储</text>
    <text x="225" y="315" text-anchor="middle" fill="#2E7D32" font-size="13">- 时间控制</text>
    <text x="225" y="335" text-anchor="middle" fill="#2E7D32" font-size="13">- 用量控制</text>
    <text x="225" y="355" text-anchor="middle" fill="#2E7D32" font-size="13">- 功能控制</text>
    
    <!-- 业务微服务 -->
    <rect x="650" y="200" width="200" height="180" rx="18" fill="#FFF3E0" stroke="#FF9800" stroke-width="2" filter="url(#shadow)"/>
    <text x="750" y="230" text-anchor="middle" fill="#E65100" font-size="16" font-weight="bold">业务微服务</text>
    <text x="750" y="255" text-anchor="middle" fill="#E65100" font-size="13">- 用户服务</text>
    <text x="750" y="275" text-anchor="middle" fill="#E65100" font-size="13">- 订单服务</text>
    <text x="750" y="295" text-anchor="middle" fill="#E65100" font-size="13">- 支付服务</text>
    <text x="750" y="315" text-anchor="middle" fill="#E65100" font-size="13">- API权限控制</text>
    <text x="750" y="335" text-anchor="middle" fill="#E65100" font-size="13">- 服务权限控制</text>
    <text x="750" y="355" text-anchor="middle" fill="#E65100" font-size="13">- 按钮权限控制</text>
    
    <!-- IAM 服务 -->
    <rect x="400" y="400" width="200" height="100" rx="18" fill="#F3E5F5" stroke="#9C27B0" stroke-width="2" filter="url(#shadow)"/>
    <text x="500" y="430" text-anchor="middle" fill="#6A1B9A" font-size="16" font-weight="bold">IAM 服务</text>
    <text x="500" y="455" text-anchor="middle" fill="#6A1B9A" font-size="13">- 认证</text>
    <text x="500" y="475" text-anchor="middle" fill="#6A1B9A" font-size="13">- 授权</text>
    <text x="500" y="495" text-anchor="middle" fill="#6A1B9A" font-size="13">- 用户管理</text>
    
    <!-- 前端应用 -->
    <rect x="400" y="550" width="200" height="100" rx="18" fill="#E1F5FE" stroke="#03A9F4" stroke-width="2" filter="url(#shadow)"/>
    <text x="500" y="580" text-anchor="middle" fill="#01579B" font-size="16" font-weight="bold">前端应用</text>
    <text x="500" y="605" text-anchor="middle" fill="#01579B" font-size="13">- UI组件控制</text>
    <text x="500" y="625" text-anchor="middle" fill="#01579B" font-size="13">- 按钮控制</text>
    <text x="500" y="645" text-anchor="middle" fill="#01579B" font-size="13">- 功能展示控制</text>
    
    <!-- 连接线 -->
    <!-- Gateway 到业务微服务 -->
    <path d="M 500 140 Q 500 170 650 290" fill="none" stroke="#2196F3" stroke-width="3" marker-end="url(#arrow)"/>
    <!-- Gateway 到 IAM -->
    <path d="M 500 140 Q 500 270 500 400" fill="none" stroke="#2196F3" stroke-width="3" marker-end="url(#arrow)"/>
    <!-- 业务微服务到许可证系统 -->
    <path d="M 650 290 Q 500 290 350 290" fill="none" stroke="#FF9800" stroke-width="3" marker-end="url(#arrow)"/>
    <!-- 许可证系统到 IAM -->
    <path d="M 225 380 Q 225 415 400 450" fill="none" stroke="#4CAF50" stroke-width="3" marker-end="url(#arrow)"/>
    <!-- 前端到 Gateway -->
    <path d="M 500 550 Q 500 525 500 500" fill="none" stroke="#03A9F4" stroke-width="3" marker-end="url(#arrow)"/>
    
    <!-- 阴影效果 -->
    <defs>
        <filter id="shadow" x="-20%" y="-20%" width="140%" height="140%">
            <feDropShadow dx="0" dy="4" stdDeviation="4" flood-color="#bbb"/>
        </filter>
        <marker id="arrow" viewBox="0 0 10 10" refX="5" refY="5"
            markerWidth="10" markerHeight="10"
            orient="auto-start-reverse">
            <path d="M 0 0 L 10 5 L 0 10 z" fill="#666"/>
        </marker>
    </defs>
    
    <!-- 图例 -->
    <rect x="50" y="700" width="900" height="60" rx="12" fill="#f0f0f0" stroke="#bdbdbd" stroke-width="1"/>
    <text x="500" y="725" text-anchor="middle" fill="#666" font-size="16" font-weight="bold">
        许可证控制流程：时间控制 → 用量控制 → 功能控制 → 权限验证
    </text>
    <text x="500" y="750" text-anchor="middle" fill="#666" font-size="16" font-weight="bold">
        微服务接入：API控制 → 服务控制 → 按钮控制 → UI控制
    </text>
</svg>