<svg width="1000" height="600" xmlns="http://www.w3.org/2000/svg">
  <rect x="0" y="0" width="1000" height="600" fill="#f8f9fa"/>
  <!-- 组件 -->
  <g>
    <!-- 用户 -->
    <rect x="60" y="250" width="120" height="80" rx="18" fill="#fff" stroke="#2196F3" stroke-width="2" filter="url(#shadow)"/>
    <text x="120" y="295" font-size="20" text-anchor="middle" fill="#1565C0" font-weight="bold">用户</text>
    <!-- API网关 -->
    <rect x="240" y="240" width="140" height="100" rx="18" fill="#E3F2FD" stroke="#2196F3" stroke-width="2" filter="url(#shadow)"/>
    <text x="310" y="295" font-size="18" text-anchor="middle" fill="#1565C0" font-weight="bold">API网关</text>
    <!-- 业务微服务 -->
    <rect x="440" y="180" width="180" height="220" rx="18" fill="#FFF3E0" stroke="#FF9800" stroke-width="2" filter="url(#shadow)"/>
    <text x="530" y="210" font-size="18" text-anchor="middle" fill="#E65100" font-weight="bold">业务微服务</text>
    <!-- 许可证管理系统 -->
    <rect x="700" y="120" width="200" height="120" rx="18" fill="#E8F5E9" stroke="#4CAF50" stroke-width="2" filter="url(#shadow)"/>
    <text x="800" y="155" font-size="18" text-anchor="middle" fill="#2E7D32" font-weight="bold">许可证管理系统</text>
    <!-- 许可证存储 -->
    <rect x="760" y="270" width="100" height="60" rx="18" fill="#eceff1" stroke="#607d8b" stroke-width="2" filter="url(#shadow)"/>
    <text x="810" y="305" font-size="16" text-anchor="middle" fill="#607d8b">许可证存储</text>
    <!-- 处理结果 -->
    <rect x="900" y="250" width="120" height="80" rx="18" fill="#fff" stroke="#2196F3" stroke-width="2" filter="url(#shadow)"/>
    <text x="960" y="295" font-size="18" text-anchor="middle" fill="#1565C0" font-weight="bold">响应/拒绝</text>
  </g>
  <!-- 流程箭头与编号 -->
  <!-- 1. 用户请求 -->
  <path d="M 180 290 Q 220 290 240 290" fill="none" stroke="#2196F3" stroke-width="3" marker-end="url(#arrow)"/>
  <text x="210" y="280" font-size="16" fill="#2196F3">1</text>
  <!-- 2. API网关转发到微服务 -->
  <path d="M 380 290 Q 440 290 440 290" fill="none" stroke="#2196F3" stroke-width="3" marker-end="url(#arrow)"/>
  <text x="410" y="280" font-size="16" fill="#2196F3">2</text>
  <!-- 3. 微服务校验许可证（本地或远程） -->
  <path d="M 620 220 Q 700 180 700 180" fill="none" stroke="#FF9800" stroke-width="3" marker-end="url(#arrow)"/>
  <text x="670" y="170" font-size="16" fill="#FF9800">3</text>
  <!-- 4. 许可证管理系统读取许可证存储 -->
  <path d="M 800 240 Q 810 270 810 270" fill="none" stroke="#4CAF50" stroke-width="3" marker-end="url(#arrow)"/>
  <text x="820" y="260" font-size="16" fill="#4CAF50">4</text>
  <!-- 5. 校验结果返回微服务 -->
  <path d="M 700 180 Q 620 220 620 220" fill="none" stroke="#4CAF50" stroke-width="3" marker-end="url(#arrow)"/>
  <text x="670" y="160" font-size="16" fill="#4CAF50">5</text>
  <!-- 6a. 校验通过，微服务处理业务 -->
  <path d="M 620 290 Q 900 290 900 290" fill="none" stroke="#43a047" stroke-width="3" marker-end="url(#arrow)"/>
  <text x="760" y="280" font-size="16" fill="#43a047">6a</text>
  <!-- 6b. 校验失败，微服务拒绝 -->
  <path d="M 530 400 Q 900 350 960 330" fill="none" stroke="#e53935" stroke-width="3" marker-end="url(#arrow)"/>
  <text x="800" y="370" font-size="16" fill="#e53935">6b</text>
  <!-- 阴影和箭头定义 -->
  <defs>
    <filter id="shadow" x="-20%" y="-20%" width="140%" height="140%">
      <feDropShadow dx="0" dy="4" stdDeviation="4" flood-color="#bbb"/>
    </filter>
    <marker id="arrow" markerWidth="12" markerHeight="12" refX="10" refY="6" orient="auto" markerUnits="strokeWidth">
      <path d="M0,0 L12,6 L0,12 L3,6 Z" fill="#333" />
    </marker>
  </defs>
  <!-- 说明 -->
  <g>
    <rect x="60" y="500" width="900" height="70" rx="14" fill="#e3f2fd" stroke="#90caf9" stroke-width="1"/>
    <text x="80" y="530" font-size="16" fill="#1565C0" font-weight="bold">流程说明：</text>
    <text x="80" y="555" font-size="15" fill="#333">1. 用户发起请求到 API 网关；2. API 网关将请求转发到业务微服务；3. 微服务收到请求后，调用本地集成的许可证校验模块（或远程调用许可证管理系统）进行许可证校验；4. 许可证管理系统从许可证存储中读取并校验许可证；5. 校验结果返回微服务；6a. 校验通过则处理业务并返回响应；6b. 校验失败则直接拒绝请求。</text>
    <text x="80" y="575" font-size="15" fill="#333">（注：许可证可本地缓存，支持离线校验；如需远程校验可通过 API 方式与许可证管理系统交互）</text>
  </g>
</svg>
